<?xml version="1.0" encoding="utf-8" standalone="no"?>
<!DOCTYPE svg PUBLIC "-//W3C//DTD SVG 1.1//EN"
  "http://www.w3.org/Graphics/SVG/1.1/DTD/svg11.dtd">
<!-- Created with matplotlib (https://matplotlib.org/) -->
<svg height="280.8pt" version="1.1" viewBox="0 0 504 280.8" width="504pt" xmlns="http://www.w3.org/2000/svg" xmlns:xlink="http://www.w3.org/1999/xlink">
 <metadata>
  <rdf:RDF xmlns:cc="http://creativecommons.org/ns#" xmlns:dc="http://purl.org/dc/elements/1.1/" xmlns:rdf="http://www.w3.org/1999/02/22-rdf-syntax-ns#">
   <cc:Work>
    <dc:type rdf:resource="http://purl.org/dc/dcmitype/StillImage"/>
    <dc:date>2024-02-16T20:52:42.341953</dc:date>
    <dc:format>image/svg+xml</dc:format>
    <dc:creator>
     <cc:Agent>
      <dc:title>Matplotlib v3.3.4, https://matplotlib.org/</dc:title>
     </cc:Agent>
    </dc:creator>
   </cc:Work>
  </rdf:RDF>
 </metadata>
 <defs>
  <style type="text/css">*{stroke-linecap:butt;stroke-linejoin:round;}</style>
 </defs>
 <g id="figure_1">
  <g id="patch_1">
   <path d="M 0 280.8 
L 504 280.8 
L 504 0 
L 0 0 
z
" style="fill:#ffffff;"/>
  </g>
  <g id="axes_1">
   <g id="patch_2">
    <path d="M 63 249.912 
L 453.6 249.912 
L 453.6 33.696 
L 63 33.696 
z
" style="fill:#ffffff;"/>
   </g>
   <g id="PathCollection_1">
    <defs>
     <path d="M 0 3 
C 0.795609 3 1.55874 2.683901 2.12132 2.12132 
C 2.683901 1.55874 3 0.795609 3 0 
C 3 -0.795609 2.683901 -1.55874 2.12132 -2.12132 
C 1.55874 -2.683901 0.795609 -3 0 -3 
C -0.795609 -3 -1.55874 -2.683901 -2.12132 -2.12132 
C -2.683901 -1.55874 -3 -0.795609 -3 0 
C -3 0.795609 -2.683901 1.55874 -2.12132 2.12132 
C -1.55874 2.683901 -0.795609 3 0 3 
z
" id="m61d2fb2751" style="stroke:#1f77b4;"/>
    </defs>
    <g clip-path="url(#p0045171f2d)">
     <use style="fill:#1f77b4;stroke:#1f77b4;" x="252.952398" xlink:href="#m61d2fb2751" y="133.067781"/>
     <use style="fill:#1f77b4;stroke:#1f77b4;" x="172.909145" xlink:href="#m61d2fb2751" y="44.060519"/>
     <use style="fill:#1f77b4;stroke:#1f77b4;" x="172.573558" xlink:href="#m61d2fb2751" y="43.833229"/>
     <use style="fill:#1f77b4;stroke:#1f77b4;" x="264.427309" xlink:href="#m61d2fb2751" y="76.666245"/>
     <use style="fill:#1f77b4;stroke:#1f77b4;" x="264.279503" xlink:href="#m61d2fb2751" y="76.566449"/>
     <use style="fill:#1f77b4;stroke:#1f77b4;" x="262.972113" xlink:href="#m61d2fb2751" y="75.680783"/>
     <use style="fill:#1f77b4;stroke:#1f77b4;" x="263.228287" xlink:href="#m61d2fb2751" y="75.85404"/>
     <use style="fill:#1f77b4;stroke:#1f77b4;" x="263.839425" xlink:href="#m61d2fb2751" y="76.267321"/>
     <use style="fill:#1f77b4;stroke:#1f77b4;" x="308.297127" xlink:href="#m61d2fb2751" y="90.517339"/>
     <use style="fill:#1f77b4;stroke:#1f77b4;" x="308.335692" xlink:href="#m61d2fb2751" y="90.486619"/>
     <use style="fill:#1f77b4;stroke:#1f77b4;" x="308.441789" xlink:href="#m61d2fb2751" y="90.415357"/>
     <use style="fill:#1f77b4;stroke:#1f77b4;" x="172.47661" xlink:href="#m61d2fb2751" y="43.767516"/>
     <use style="fill:#1f77b4;stroke:#1f77b4;" x="172.134487" xlink:href="#m61d2fb2751" y="43.535941"/>
     <use style="fill:#1f77b4;stroke:#1f77b4;" x="172.116913" xlink:href="#m61d2fb2751" y="43.524"/>
     <use style="fill:#1f77b4;stroke:#1f77b4;" x="182.13413" xlink:href="#m61d2fb2751" y="87.827827"/>
     <use style="fill:#1f77b4;stroke:#1f77b4;" x="182.134012" xlink:href="#m61d2fb2751" y="87.828081"/>
     <use style="fill:#1f77b4;stroke:#1f77b4;" x="182.134295" xlink:href="#m61d2fb2751" y="87.828087"/>
     <use style="fill:#1f77b4;stroke:#1f77b4;" x="237.808606" xlink:href="#m61d2fb2751" y="56.443095"/>
     <use style="fill:#1f77b4;stroke:#1f77b4;" x="229.983902" xlink:href="#m61d2fb2751" y="61.711436"/>
     <use style="fill:#1f77b4;stroke:#1f77b4;" x="230.509756" xlink:href="#m61d2fb2751" y="61.350757"/>
     <use style="fill:#1f77b4;stroke:#1f77b4;" x="230.31988" xlink:href="#m61d2fb2751" y="61.485887"/>
     <use style="fill:#1f77b4;stroke:#1f77b4;" x="230.164697" xlink:href="#m61d2fb2751" y="61.59249"/>
     <use style="fill:#1f77b4;stroke:#1f77b4;" x="228.159445" xlink:href="#m61d2fb2751" y="62.963999"/>
     <use style="fill:#1f77b4;stroke:#1f77b4;" x="228.159939" xlink:href="#m61d2fb2751" y="62.964432"/>
     <use style="fill:#1f77b4;stroke:#1f77b4;" x="231.785447" xlink:href="#m61d2fb2751" y="60.428649"/>
     <use style="fill:#1f77b4;stroke:#1f77b4;" x="231.624327" xlink:href="#m61d2fb2751" y="60.548202"/>
     <use style="fill:#1f77b4;stroke:#1f77b4;" x="232.805406" xlink:href="#m61d2fb2751" y="59.715528"/>
     <use style="fill:#1f77b4;stroke:#1f77b4;" x="232.658646" xlink:href="#m61d2fb2751" y="59.817573"/>
     <use style="fill:#1f77b4;stroke:#1f77b4;" x="238.326696" xlink:href="#m61d2fb2751" y="56.09751"/>
     <use style="fill:#1f77b4;stroke:#1f77b4;" x="237.327514" xlink:href="#m61d2fb2751" y="56.764978"/>
     <use style="fill:#1f77b4;stroke:#1f77b4;" x="250.222846" xlink:href="#m61d2fb2751" y="110.058958"/>
     <use style="fill:#1f77b4;stroke:#1f77b4;" x="250.222754" xlink:href="#m61d2fb2751" y="110.05915"/>
     <use style="fill:#1f77b4;stroke:#1f77b4;" x="250.222754" xlink:href="#m61d2fb2751" y="110.059373"/>
     <use style="fill:#1f77b4;stroke:#1f77b4;" x="250.222978" xlink:href="#m61d2fb2751" y="110.059385"/>
     <use style="fill:#1f77b4;stroke:#1f77b4;" x="165.921209" xlink:href="#m61d2fb2751" y="118.041898"/>
     <use style="fill:#1f77b4;stroke:#1f77b4;" x="166.066013" xlink:href="#m61d2fb2751" y="117.94122"/>
     <use style="fill:#1f77b4;stroke:#1f77b4;" x="166.130693" xlink:href="#m61d2fb2751" y="117.897633"/>
     <use style="fill:#1f77b4;stroke:#1f77b4;" x="167.871635" xlink:href="#m61d2fb2751" y="116.709439"/>
     <use style="fill:#1f77b4;stroke:#1f77b4;" x="165.419043" xlink:href="#m61d2fb2751" y="118.377518"/>
     <use style="fill:#1f77b4;stroke:#1f77b4;" x="164.764212" xlink:href="#m61d2fb2751" y="118.821323"/>
     <use style="fill:#1f77b4;stroke:#1f77b4;" x="164.076003" xlink:href="#m61d2fb2751" y="119.287939"/>
     <use style="fill:#1f77b4;stroke:#1f77b4;" x="238.628053" xlink:href="#m61d2fb2751" y="55.854049"/>
     <use style="fill:#1f77b4;stroke:#1f77b4;" x="238.62782" xlink:href="#m61d2fb2751" y="55.854086"/>
     <use style="fill:#1f77b4;stroke:#1f77b4;" x="242.251729" xlink:href="#m61d2fb2751" y="54.141656"/>
     <use style="fill:#1f77b4;stroke:#1f77b4;" x="242.146555" xlink:href="#m61d2fb2751" y="54.202018"/>
     <use style="fill:#1f77b4;stroke:#1f77b4;" x="241.554603" xlink:href="#m61d2fb2751" y="54.54961"/>
     <use style="fill:#1f77b4;stroke:#1f77b4;" x="148.553006" xlink:href="#m61d2fb2751" y="162.178751"/>
     <use style="fill:#1f77b4;stroke:#1f77b4;" x="145.888202" xlink:href="#m61d2fb2751" y="161.501296"/>
     <use style="fill:#1f77b4;stroke:#1f77b4;" x="145.971548" xlink:href="#m61d2fb2751" y="161.518715"/>
     <use style="fill:#1f77b4;stroke:#1f77b4;" x="145.907837" xlink:href="#m61d2fb2751" y="161.427376"/>
     <use style="fill:#1f77b4;stroke:#1f77b4;" x="153.054714" xlink:href="#m61d2fb2751" y="193.967225"/>
     <use style="fill:#1f77b4;stroke:#1f77b4;" x="153.055553" xlink:href="#m61d2fb2751" y="193.966937"/>
     <use style="fill:#1f77b4;stroke:#1f77b4;" x="153.055743" xlink:href="#m61d2fb2751" y="193.96711"/>
     <use style="fill:#1f77b4;stroke:#1f77b4;" x="153.055797" xlink:href="#m61d2fb2751" y="193.966664"/>
     <use style="fill:#1f77b4;stroke:#1f77b4;" x="149.896215" xlink:href="#m61d2fb2751" y="162.467454"/>
     <use style="fill:#1f77b4;stroke:#1f77b4;" x="150.33047" xlink:href="#m61d2fb2751" y="162.167664"/>
     <use style="fill:#1f77b4;stroke:#1f77b4;" x="150.340488" xlink:href="#m61d2fb2751" y="162.174579"/>
     <use style="fill:#1f77b4;stroke:#1f77b4;" x="149.859533" xlink:href="#m61d2fb2751" y="162.530568"/>
     <use style="fill:#1f77b4;stroke:#1f77b4;" x="149.890543" xlink:href="#m61d2fb2751" y="162.486785"/>
     <use style="fill:#1f77b4;stroke:#1f77b4;" x="124.628792" xlink:href="#m61d2fb2751" y="111.002158"/>
     <use style="fill:#1f77b4;stroke:#1f77b4;" x="125.026575" xlink:href="#m61d2fb2751" y="110.733214"/>
     <use style="fill:#1f77b4;stroke:#1f77b4;" x="125.641804" xlink:href="#m61d2fb2751" y="110.317872"/>
     <use style="fill:#1f77b4;stroke:#1f77b4;" x="125.168029" xlink:href="#m61d2fb2751" y="110.63824"/>
     <use style="fill:#1f77b4;stroke:#1f77b4;" x="126.001182" xlink:href="#m61d2fb2751" y="110.07791"/>
     <use style="fill:#1f77b4;stroke:#1f77b4;" x="126.396621" xlink:href="#m61d2fb2751" y="109.812602"/>
     <use style="fill:#1f77b4;stroke:#1f77b4;" x="315.06318" xlink:href="#m61d2fb2751" y="177.416329"/>
     <use style="fill:#1f77b4;stroke:#1f77b4;" x="314.838573" xlink:href="#m61d2fb2751" y="177.636981"/>
     <use style="fill:#1f77b4;stroke:#1f77b4;" x="315.062512" xlink:href="#m61d2fb2751" y="177.300812"/>
     <use style="fill:#1f77b4;stroke:#1f77b4;" x="314.792978" xlink:href="#m61d2fb2751" y="177.624367"/>
     <use style="fill:#1f77b4;stroke:#1f77b4;" x="316.033984" xlink:href="#m61d2fb2751" y="175.661428"/>
     <use style="fill:#1f77b4;stroke:#1f77b4;" x="315.819944" xlink:href="#m61d2fb2751" y="175.970425"/>
     <use style="fill:#1f77b4;stroke:#1f77b4;" x="315.906662" xlink:href="#m61d2fb2751" y="175.825612"/>
     <use style="fill:#1f77b4;stroke:#1f77b4;" x="117.720893" xlink:href="#m61d2fb2751" y="131.724374"/>
     <use style="fill:#1f77b4;stroke:#1f77b4;" x="117.018379" xlink:href="#m61d2fb2751" y="131.252813"/>
     <use style="fill:#1f77b4;stroke:#1f77b4;" x="117.12635" xlink:href="#m61d2fb2751" y="131.325389"/>
     <use style="fill:#1f77b4;stroke:#1f77b4;" x="117.173776" xlink:href="#m61d2fb2751" y="131.358248"/>
     <use style="fill:#1f77b4;stroke:#1f77b4;" x="117.352606" xlink:href="#m61d2fb2751" y="131.484858"/>
     <use style="fill:#1f77b4;stroke:#1f77b4;" x="95.977593" xlink:href="#m61d2fb2751" y="200.316017"/>
     <use style="fill:#1f77b4;stroke:#1f77b4;" x="95.451514" xlink:href="#m61d2fb2751" y="200.672162"/>
     <use style="fill:#1f77b4;stroke:#1f77b4;" x="96.077063" xlink:href="#m61d2fb2751" y="200.248149"/>
     <use style="fill:#1f77b4;stroke:#1f77b4;" x="95.292273" xlink:href="#m61d2fb2751" y="200.776266"/>
     <use style="fill:#1f77b4;stroke:#1f77b4;" x="95.787785" xlink:href="#m61d2fb2751" y="200.44369"/>
     <use style="fill:#1f77b4;stroke:#1f77b4;" x="83.519162" xlink:href="#m61d2fb2751" y="172.987802"/>
     <use style="fill:#1f77b4;stroke:#1f77b4;" x="83.510634" xlink:href="#m61d2fb2751" y="172.990174"/>
     <use style="fill:#1f77b4;stroke:#1f77b4;" x="83.470698" xlink:href="#m61d2fb2751" y="173.046823"/>
     <use style="fill:#1f77b4;stroke:#1f77b4;" x="81.186319" xlink:href="#m61d2fb2751" y="175.289105"/>
     <use style="fill:#1f77b4;stroke:#1f77b4;" x="81.020917" xlink:href="#m61d2fb2751" y="175.419969"/>
     <use style="fill:#1f77b4;stroke:#1f77b4;" x="80.754545" xlink:href="#m61d2fb2751" y="175.590281"/>
     <use style="fill:#1f77b4;stroke:#1f77b4;" x="81.815899" xlink:href="#m61d2fb2751" y="174.778331"/>
     <use style="fill:#1f77b4;stroke:#1f77b4;" x="214.401037" xlink:href="#m61d2fb2751" y="187.473418"/>
     <use style="fill:#1f77b4;stroke:#1f77b4;" x="214.400457" xlink:href="#m61d2fb2751" y="187.473653"/>
     <use style="fill:#1f77b4;stroke:#1f77b4;" x="214.400804" xlink:href="#m61d2fb2751" y="187.473681"/>
     <use style="fill:#1f77b4;stroke:#1f77b4;" x="316.117266" xlink:href="#m61d2fb2751" y="175.298796"/>
     <use style="fill:#1f77b4;stroke:#1f77b4;" x="296.992481" xlink:href="#m61d2fb2751" y="120.232827"/>
     <use style="fill:#1f77b4;stroke:#1f77b4;" x="296.991494" xlink:href="#m61d2fb2751" y="120.232744"/>
     <use style="fill:#1f77b4;stroke:#1f77b4;" x="296.991448" xlink:href="#m61d2fb2751" y="120.232787"/>
     <use style="fill:#1f77b4;stroke:#1f77b4;" x="228.780912" xlink:href="#m61d2fb2751" y="160.567186"/>
     <use style="fill:#1f77b4;stroke:#1f77b4;" x="228.422836" xlink:href="#m61d2fb2751" y="160.326779"/>
     <use style="fill:#1f77b4;stroke:#1f77b4;" x="228.995067" xlink:href="#m61d2fb2751" y="160.707996"/>
     <use style="fill:#1f77b4;stroke:#1f77b4;" x="228.808773" xlink:href="#m61d2fb2751" y="160.58499"/>
     <use style="fill:#1f77b4;stroke:#1f77b4;" x="228.876548" xlink:href="#m61d2fb2751" y="160.631107"/>
     <use style="fill:#1f77b4;stroke:#1f77b4;" x="295.01483" xlink:href="#m61d2fb2751" y="136.126914"/>
     <use style="fill:#1f77b4;stroke:#1f77b4;" x="295.015003" xlink:href="#m61d2fb2751" y="136.12594"/>
     <use style="fill:#1f77b4;stroke:#1f77b4;" x="295.015378" xlink:href="#m61d2fb2751" y="136.127242"/>
     <use style="fill:#1f77b4;stroke:#1f77b4;" x="226.290146" xlink:href="#m61d2fb2751" y="158.951358"/>
     <use style="fill:#1f77b4;stroke:#1f77b4;" x="226.272157" xlink:href="#m61d2fb2751" y="158.939231"/>
     <use style="fill:#1f77b4;stroke:#1f77b4;" x="226.285388" xlink:href="#m61d2fb2751" y="158.947828"/>
     <use style="fill:#1f77b4;stroke:#1f77b4;" x="280.094351" xlink:href="#m61d2fb2751" y="156.017792"/>
     <use style="fill:#1f77b4;stroke:#1f77b4;" x="280.243145" xlink:href="#m61d2fb2751" y="155.917598"/>
     <use style="fill:#1f77b4;stroke:#1f77b4;" x="280.465201" xlink:href="#m61d2fb2751" y="155.767963"/>
     <use style="fill:#1f77b4;stroke:#1f77b4;" x="280.609708" xlink:href="#m61d2fb2751" y="155.668847"/>
     <use style="fill:#1f77b4;stroke:#1f77b4;" x="280.292724" xlink:href="#m61d2fb2751" y="155.881942"/>
     <use style="fill:#1f77b4;stroke:#1f77b4;" x="196.871477" xlink:href="#m61d2fb2751" y="204.466371"/>
     <use style="fill:#1f77b4;stroke:#1f77b4;" x="196.853419" xlink:href="#m61d2fb2751" y="204.711454"/>
     <use style="fill:#1f77b4;stroke:#1f77b4;" x="196.695752" xlink:href="#m61d2fb2751" y="205.084108"/>
     <use style="fill:#1f77b4;stroke:#1f77b4;" x="196.709759" xlink:href="#m61d2fb2751" y="205.245908"/>
     <use style="fill:#1f77b4;stroke:#1f77b4;" x="196.706523" xlink:href="#m61d2fb2751" y="206.321011"/>
     <use style="fill:#1f77b4;stroke:#1f77b4;" x="196.689242" xlink:href="#m61d2fb2751" y="207.168766"/>
     <use style="fill:#1f77b4;stroke:#1f77b4;" x="196.394866" xlink:href="#m61d2fb2751" y="207.951142"/>
     <use style="fill:#1f77b4;stroke:#1f77b4;" x="196.375551" xlink:href="#m61d2fb2751" y="208.187056"/>
     <use style="fill:#1f77b4;stroke:#1f77b4;" x="195.962777" xlink:href="#m61d2fb2751" y="208.556781"/>
     <use style="fill:#1f77b4;stroke:#1f77b4;" x="195.771533" xlink:href="#m61d2fb2751" y="208.662213"/>
     <use style="fill:#1f77b4;stroke:#1f77b4;" x="266.485409" xlink:href="#m61d2fb2751" y="173.771692"/>
     <use style="fill:#1f77b4;stroke:#1f77b4;" x="266.679906" xlink:href="#m61d2fb2751" y="173.643563"/>
     <use style="fill:#1f77b4;stroke:#1f77b4;" x="266.517758" xlink:href="#m61d2fb2751" y="173.757732"/>
     <use style="fill:#1f77b4;stroke:#1f77b4;" x="267.909742" xlink:href="#m61d2fb2751" y="172.816632"/>
     <use style="fill:#1f77b4;stroke:#1f77b4;" x="267.509604" xlink:href="#m61d2fb2751" y="173.068731"/>
     <use style="fill:#1f77b4;stroke:#1f77b4;" x="269.074596" xlink:href="#m61d2fb2751" y="172.157601"/>
     <use style="fill:#1f77b4;stroke:#1f77b4;" x="302.733113" xlink:href="#m61d2fb2751" y="155.025274"/>
     <use style="fill:#1f77b4;stroke:#1f77b4;" x="302.606934" xlink:href="#m61d2fb2751" y="155.110405"/>
     <use style="fill:#1f77b4;stroke:#1f77b4;" x="303.127894" xlink:href="#m61d2fb2751" y="154.766348"/>
     <use style="fill:#1f77b4;stroke:#1f77b4;" x="304.168835" xlink:href="#m61d2fb2751" y="154.030891"/>
     <use style="fill:#1f77b4;stroke:#1f77b4;" x="304.042025" xlink:href="#m61d2fb2751" y="154.115837"/>
     <use style="fill:#1f77b4;stroke:#1f77b4;" x="303.418086" xlink:href="#m61d2fb2751" y="154.5834"/>
     <use style="fill:#1f77b4;stroke:#1f77b4;" x="303.329" xlink:href="#m61d2fb2751" y="154.630768"/>
     <use style="fill:#1f77b4;stroke:#1f77b4;" x="222.239681" xlink:href="#m61d2fb2751" y="83.064597"/>
     <use style="fill:#1f77b4;stroke:#1f77b4;" x="222.240397" xlink:href="#m61d2fb2751" y="83.06539"/>
     <use style="fill:#1f77b4;stroke:#1f77b4;" x="222.239624" xlink:href="#m61d2fb2751" y="83.063012"/>
     <use style="fill:#1f77b4;stroke:#1f77b4;" x="222.239791" xlink:href="#m61d2fb2751" y="83.063768"/>
     <use style="fill:#1f77b4;stroke:#1f77b4;" x="330.809106" xlink:href="#m61d2fb2751" y="145.610299"/>
     <use style="fill:#1f77b4;stroke:#1f77b4;" x="258.382002" xlink:href="#m61d2fb2751" y="238.654402"/>
     <use style="fill:#1f77b4;stroke:#1f77b4;" x="259.974831" xlink:href="#m61d2fb2751" y="239.68455"/>
     <use style="fill:#1f77b4;stroke:#1f77b4;" x="260.900371" xlink:href="#m61d2fb2751" y="240.084"/>
     <use style="fill:#1f77b4;stroke:#1f77b4;" x="260.668584" xlink:href="#m61d2fb2751" y="239.98164"/>
     <use style="fill:#1f77b4;stroke:#1f77b4;" x="260.559155" xlink:href="#m61d2fb2751" y="239.933132"/>
     <use style="fill:#1f77b4;stroke:#1f77b4;" x="260.079022" xlink:href="#m61d2fb2751" y="239.713102"/>
     <use style="fill:#1f77b4;stroke:#1f77b4;" x="259.658108" xlink:href="#m61d2fb2751" y="239.486097"/>
     <use style="fill:#1f77b4;stroke:#1f77b4;" x="257.6026" xlink:href="#m61d2fb2751" y="238.103564"/>
     <use style="fill:#1f77b4;stroke:#1f77b4;" x="257.547372" xlink:href="#m61d2fb2751" y="238.069877"/>
     <use style="fill:#1f77b4;stroke:#1f77b4;" x="336.634089" xlink:href="#m61d2fb2751" y="131.13607"/>
     <use style="fill:#1f77b4;stroke:#1f77b4;" x="336.637636" xlink:href="#m61d2fb2751" y="131.155216"/>
     <use style="fill:#1f77b4;stroke:#1f77b4;" x="336.64919" xlink:href="#m61d2fb2751" y="131.224709"/>
     <use style="fill:#1f77b4;stroke:#1f77b4;" x="336.63961" xlink:href="#m61d2fb2751" y="131.158138"/>
     <use style="fill:#1f77b4;stroke:#1f77b4;" x="337.636128" xlink:href="#m61d2fb2751" y="141.104627"/>
     <use style="fill:#1f77b4;stroke:#1f77b4;" x="337.430744" xlink:href="#m61d2fb2751" y="140.936176"/>
     <use style="fill:#1f77b4;stroke:#1f77b4;" x="337.267216" xlink:href="#m61d2fb2751" y="140.772948"/>
     <use style="fill:#1f77b4;stroke:#1f77b4;" x="337.934154" xlink:href="#m61d2fb2751" y="140.970569"/>
     <use style="fill:#1f77b4;stroke:#1f77b4;" x="344.962455" xlink:href="#m61d2fb2751" y="142.268897"/>
     <use style="fill:#1f77b4;stroke:#1f77b4;" x="344.955033" xlink:href="#m61d2fb2751" y="142.266649"/>
     <use style="fill:#1f77b4;stroke:#1f77b4;" x="345.050682" xlink:href="#m61d2fb2751" y="142.293396"/>
     <use style="fill:#1f77b4;stroke:#1f77b4;" x="347.677099" xlink:href="#m61d2fb2751" y="143.094438"/>
     <use style="fill:#1f77b4;stroke:#1f77b4;" x="347.630572" xlink:href="#m61d2fb2751" y="143.054525"/>
     <use style="fill:#1f77b4;stroke:#1f77b4;" x="346.899695" xlink:href="#m61d2fb2751" y="142.730218"/>
     <use style="fill:#1f77b4;stroke:#1f77b4;" x="249.350268" xlink:href="#m61d2fb2751" y="148.266606"/>
     <use style="fill:#1f77b4;stroke:#1f77b4;" x="249.350478" xlink:href="#m61d2fb2751" y="148.266567"/>
     <use style="fill:#1f77b4;stroke:#1f77b4;" x="249.350647" xlink:href="#m61d2fb2751" y="148.266517"/>
     <use style="fill:#1f77b4;stroke:#1f77b4;" x="361.029168" xlink:href="#m61d2fb2751" y="211.348176"/>
     <use style="fill:#1f77b4;stroke:#1f77b4;" x="360.975146" xlink:href="#m61d2fb2751" y="211.31174"/>
     <use style="fill:#1f77b4;stroke:#1f77b4;" x="434.72178" xlink:href="#m61d2fb2751" y="149.533652"/>
     <use style="fill:#1f77b4;stroke:#1f77b4;" x="434.785692" xlink:href="#m61d2fb2751" y="149.576844"/>
     <use style="fill:#1f77b4;stroke:#1f77b4;" x="435.060116" xlink:href="#m61d2fb2751" y="149.761621"/>
     <use style="fill:#1f77b4;stroke:#1f77b4;" x="435.280299" xlink:href="#m61d2fb2751" y="149.911156"/>
     <use style="fill:#1f77b4;stroke:#1f77b4;" x="434.990098" xlink:href="#m61d2fb2751" y="149.714671"/>
     <use style="fill:#1f77b4;stroke:#1f77b4;" x="435.670683" xlink:href="#m61d2fb2751" y="150.175977"/>
     <use style="fill:#1f77b4;stroke:#1f77b4;" x="435.845455" xlink:href="#m61d2fb2751" y="150.294693"/>
     <use style="fill:#1f77b4;stroke:#1f77b4;" x="361.58361" xlink:href="#m61d2fb2751" y="211.723528"/>
     <use style="fill:#1f77b4;stroke:#1f77b4;" x="361.961471" xlink:href="#m61d2fb2751" y="211.979419"/>
     <use style="fill:#1f77b4;stroke:#1f77b4;" x="361.69968" xlink:href="#m61d2fb2751" y="211.802086"/>
     <use style="fill:#1f77b4;stroke:#1f77b4;" x="362.621782" xlink:href="#m61d2fb2751" y="212.423877"/>
     <use style="fill:#1f77b4;stroke:#1f77b4;" x="362.619497" xlink:href="#m61d2fb2751" y="212.422341"/>
     <use style="fill:#1f77b4;stroke:#1f77b4;" x="286.515084" xlink:href="#m61d2fb2751" y="178.122545"/>
     <use style="fill:#1f77b4;stroke:#1f77b4;" x="286.449627" xlink:href="#m61d2fb2751" y="178.050077"/>
     <use style="fill:#1f77b4;stroke:#1f77b4;" x="286.235788" xlink:href="#m61d2fb2751" y="177.828262"/>
     <use style="fill:#1f77b4;stroke:#1f77b4;" x="286.430066" xlink:href="#m61d2fb2751" y="178.027487"/>
     <use style="fill:#1f77b4;stroke:#1f77b4;" x="221.122188" xlink:href="#m61d2fb2751" y="177.215662"/>
     <use style="fill:#1f77b4;stroke:#1f77b4;" x="221.11549" xlink:href="#m61d2fb2751" y="177.224702"/>
     <use style="fill:#1f77b4;stroke:#1f77b4;" x="221.196148" xlink:href="#m61d2fb2751" y="177.280445"/>
     <use style="fill:#1f77b4;stroke:#1f77b4;" x="221.186454" xlink:href="#m61d2fb2751" y="177.272734"/>
     <use style="fill:#1f77b4;stroke:#1f77b4;" x="220.977359" xlink:href="#m61d2fb2751" y="177.128357"/>
     <use style="fill:#1f77b4;stroke:#1f77b4;" x="376.578952" xlink:href="#m61d2fb2751" y="171.256668"/>
     <use style="fill:#1f77b4;stroke:#1f77b4;" x="377.278751" xlink:href="#m61d2fb2751" y="170.779698"/>
     <use style="fill:#1f77b4;stroke:#1f77b4;" x="376.731127" xlink:href="#m61d2fb2751" y="171.153046"/>
     <use style="fill:#1f77b4;stroke:#1f77b4;" x="376.779902" xlink:href="#m61d2fb2751" y="171.120669"/>
     <use style="fill:#1f77b4;stroke:#1f77b4;" x="376.488604" xlink:href="#m61d2fb2751" y="171.31587"/>
     <use style="fill:#1f77b4;stroke:#1f77b4;" x="333.892526" xlink:href="#m61d2fb2751" y="145.358862"/>
     <use style="fill:#1f77b4;stroke:#1f77b4;" x="333.796675" xlink:href="#m61d2fb2751" y="145.352571"/>
     <use style="fill:#1f77b4;stroke:#1f77b4;" x="331.537982" xlink:href="#m61d2fb2751" y="144.970393"/>
     <use style="fill:#1f77b4;stroke:#1f77b4;" x="331.920341" xlink:href="#m61d2fb2751" y="143.996278"/>
     <use style="fill:#1f77b4;stroke:#1f77b4;" x="332.050505" xlink:href="#m61d2fb2751" y="143.868396"/>
     <use style="fill:#1f77b4;stroke:#1f77b4;" x="330.053421" xlink:href="#m61d2fb2751" y="145.556364"/>
     <use style="fill:#1f77b4;stroke:#1f77b4;" x="330.474828" xlink:href="#m61d2fb2751" y="145.303452"/>
     <use style="fill:#1f77b4;stroke:#1f77b4;" x="325.282058" xlink:href="#m61d2fb2751" y="55.369717"/>
     <use style="fill:#1f77b4;stroke:#1f77b4;" x="325.26118" xlink:href="#m61d2fb2751" y="55.354215"/>
     <use style="fill:#1f77b4;stroke:#1f77b4;" x="325.261984" xlink:href="#m61d2fb2751" y="55.354599"/>
     <use style="fill:#1f77b4;stroke:#1f77b4;" x="325.258776" xlink:href="#m61d2fb2751" y="55.352573"/>
     <use style="fill:#1f77b4;stroke:#1f77b4;" x="259.278167" xlink:href="#m61d2fb2751" y="114.467237"/>
     <use style="fill:#1f77b4;stroke:#1f77b4;" x="258.847007" xlink:href="#m61d2fb2751" y="114.732258"/>
     <use style="fill:#1f77b4;stroke:#1f77b4;" x="259.378908" xlink:href="#m61d2fb2751" y="114.415714"/>
     <use style="fill:#1f77b4;stroke:#1f77b4;" x="259.201326" xlink:href="#m61d2fb2751" y="114.536276"/>
     <use style="fill:#1f77b4;stroke:#1f77b4;" x="258.496485" xlink:href="#m61d2fb2751" y="114.898383"/>
     <use style="fill:#1f77b4;stroke:#1f77b4;" x="252.952522" xlink:href="#m61d2fb2751" y="133.064221"/>
     <use style="fill:#1f77b4;stroke:#1f77b4;" x="252.952531" xlink:href="#m61d2fb2751" y="133.064342"/>
    </g>
   </g>
   <g id="matplotlib.axis_1">
    <g id="xtick_1">
     <g id="line2d_1">
      <defs>
       <path d="M 0 0 
L 0 3.5 
" id="mf161ac7973" style="stroke:#000000;stroke-width:0.8;"/>
      </defs>
      <g>
       <use style="stroke:#000000;stroke-width:0.8;" x="93.044722" xlink:href="#mf161ac7973" y="249.912"/>
      </g>
     </g>
     <g id="text_1">
      <!-- −10 -->
      <g transform="translate(82.492378 264.510438)scale(0.1 -0.1)">
       <defs>
        <path d="M 10.59375 35.5 
L 73.1875 35.5 
L 73.1875 27.203125 
L 10.59375 27.203125 
z
" id="DejaVuSans-8722"/>
        <path d="M 12.40625 8.296875 
L 28.515625 8.296875 
L 28.515625 63.921875 
L 10.984375 60.40625 
L 10.984375 69.390625 
L 28.421875 72.90625 
L 38.28125 72.90625 
L 38.28125 8.296875 
L 54.390625 8.296875 
L 54.390625 0 
L 12.40625 0 
z
" id="DejaVuSans-49"/>
        <path d="M 31.78125 66.40625 
Q 24.171875 66.40625 20.328125 58.90625 
Q 16.5 51.421875 16.5 36.375 
Q 16.5 21.390625 20.328125 13.890625 
Q 24.171875 6.390625 31.78125 6.390625 
Q 39.453125 6.390625 43.28125 13.890625 
Q 47.125 21.390625 47.125 36.375 
Q 47.125 51.421875 43.28125 58.90625 
Q 39.453125 66.40625 31.78125 66.40625 
z
M 31.78125 74.21875 
Q 44.046875 74.21875 50.515625 64.515625 
Q 56.984375 54.828125 56.984375 36.375 
Q 56.984375 17.96875 50.515625 8.265625 
Q 44.046875 -1.421875 31.78125 -1.421875 
Q 19.53125 -1.421875 13.0625 8.265625 
Q 6.59375 17.96875 6.59375 36.375 
Q 6.59375 54.828125 13.0625 64.515625 
Q 19.53125 74.21875 31.78125 74.21875 
z
" id="DejaVuSans-48"/>
       </defs>
       <use xlink:href="#DejaVuSans-8722"/>
       <use x="83.789062" xlink:href="#DejaVuSans-49"/>
       <use x="147.412109" xlink:href="#DejaVuSans-48"/>
      </g>
     </g>
    </g>
    <g id="xtick_2">
     <g id="line2d_2">
      <g>
       <use style="stroke:#000000;stroke-width:0.8;" x="140.968681" xlink:href="#mf161ac7973" y="249.912"/>
      </g>
     </g>
     <g id="text_2">
      <!-- −5 -->
      <g transform="translate(133.597587 264.510438)scale(0.1 -0.1)">
       <defs>
        <path d="M 10.796875 72.90625 
L 49.515625 72.90625 
L 49.515625 64.59375 
L 19.828125 64.59375 
L 19.828125 46.734375 
Q 21.96875 47.46875 24.109375 47.828125 
Q 26.265625 48.1875 28.421875 48.1875 
Q 40.625 48.1875 47.75 41.5 
Q 54.890625 34.8125 54.890625 23.390625 
Q 54.890625 11.625 47.5625 5.09375 
Q 40.234375 -1.421875 26.90625 -1.421875 
Q 22.3125 -1.421875 17.546875 -0.640625 
Q 12.796875 0.140625 7.71875 1.703125 
L 7.71875 11.625 
Q 12.109375 9.234375 16.796875 8.0625 
Q 21.484375 6.890625 26.703125 6.890625 
Q 35.15625 6.890625 40.078125 11.328125 
Q 45.015625 15.765625 45.015625 23.390625 
Q 45.015625 31 40.078125 35.4375 
Q 35.15625 39.890625 26.703125 39.890625 
Q 22.75 39.890625 18.8125 39.015625 
Q 14.890625 38.140625 10.796875 36.28125 
z
" id="DejaVuSans-53"/>
       </defs>
       <use xlink:href="#DejaVuSans-8722"/>
       <use x="83.789062" xlink:href="#DejaVuSans-53"/>
      </g>
     </g>
    </g>
    <g id="xtick_3">
     <g id="line2d_3">
      <g>
       <use style="stroke:#000000;stroke-width:0.8;" x="188.89264" xlink:href="#mf161ac7973" y="249.912"/>
      </g>
     </g>
     <g id="text_3">
      <!-- 0 -->
      <g transform="translate(185.71139 264.510438)scale(0.1 -0.1)">
       <use xlink:href="#DejaVuSans-48"/>
      </g>
     </g>
    </g>
    <g id="xtick_4">
     <g id="line2d_4">
      <g>
       <use style="stroke:#000000;stroke-width:0.8;" x="236.8166" xlink:href="#mf161ac7973" y="249.912"/>
      </g>
     </g>
     <g id="text_4">
      <!-- 5 -->
      <g transform="translate(233.63535 264.510438)scale(0.1 -0.1)">
       <use xlink:href="#DejaVuSans-53"/>
      </g>
     </g>
    </g>
    <g id="xtick_5">
     <g id="line2d_5">
      <g>
       <use style="stroke:#000000;stroke-width:0.8;" x="284.740559" xlink:href="#mf161ac7973" y="249.912"/>
      </g>
     </g>
     <g id="text_5">
      <!-- 10 -->
      <g transform="translate(278.378059 264.510438)scale(0.1 -0.1)">
       <use xlink:href="#DejaVuSans-49"/>
       <use x="63.623047" xlink:href="#DejaVuSans-48"/>
      </g>
     </g>
    </g>
    <g id="xtick_6">
     <g id="line2d_6">
      <g>
       <use style="stroke:#000000;stroke-width:0.8;" x="332.664518" xlink:href="#mf161ac7973" y="249.912"/>
      </g>
     </g>
     <g id="text_6">
      <!-- 15 -->
      <g transform="translate(326.302018 264.510438)scale(0.1 -0.1)">
       <use xlink:href="#DejaVuSans-49"/>
       <use x="63.623047" xlink:href="#DejaVuSans-53"/>
      </g>
     </g>
    </g>
    <g id="xtick_7">
     <g id="line2d_7">
      <g>
       <use style="stroke:#000000;stroke-width:0.8;" x="380.588477" xlink:href="#mf161ac7973" y="249.912"/>
      </g>
     </g>
     <g id="text_7">
      <!-- 20 -->
      <g transform="translate(374.225977 264.510438)scale(0.1 -0.1)">
       <defs>
        <path d="M 19.1875 8.296875 
L 53.609375 8.296875 
L 53.609375 0 
L 7.328125 0 
L 7.328125 8.296875 
Q 12.9375 14.109375 22.625 23.890625 
Q 32.328125 33.6875 34.8125 36.53125 
Q 39.546875 41.84375 41.421875 45.53125 
Q 43.3125 49.21875 43.3125 52.78125 
Q 43.3125 58.59375 39.234375 62.25 
Q 35.15625 65.921875 28.609375 65.921875 
Q 23.96875 65.921875 18.8125 64.3125 
Q 13.671875 62.703125 7.8125 59.421875 
L 7.8125 69.390625 
Q 13.765625 71.78125 18.9375 73 
Q 24.125 74.21875 28.421875 74.21875 
Q 39.75 74.21875 46.484375 68.546875 
Q 53.21875 62.890625 53.21875 53.421875 
Q 53.21875 48.921875 51.53125 44.890625 
Q 49.859375 40.875 45.40625 35.40625 
Q 44.1875 33.984375 37.640625 27.21875 
Q 31.109375 20.453125 19.1875 8.296875 
z
" id="DejaVuSans-50"/>
       </defs>
       <use xlink:href="#DejaVuSans-50"/>
       <use x="63.623047" xlink:href="#DejaVuSans-48"/>
      </g>
     </g>
    </g>
    <g id="xtick_8">
     <g id="line2d_8">
      <g>
       <use style="stroke:#000000;stroke-width:0.8;" x="428.512436" xlink:href="#mf161ac7973" y="249.912"/>
      </g>
     </g>
     <g id="text_8">
      <!-- 25 -->
      <g transform="translate(422.149936 264.510438)scale(0.1 -0.1)">
       <use xlink:href="#DejaVuSans-50"/>
       <use x="63.623047" xlink:href="#DejaVuSans-53"/>
      </g>
     </g>
    </g>
   </g>
   <g id="matplotlib.axis_2">
    <g id="ytick_1">
     <g id="line2d_9">
      <defs>
       <path d="M 0 0 
L -3.5 0 
" id="m2f0ca688d9" style="stroke:#000000;stroke-width:0.8;"/>
      </defs>
      <g>
       <use style="stroke:#000000;stroke-width:0.8;" x="63" xlink:href="#m2f0ca688d9" y="221.612988"/>
      </g>
     </g>
     <g id="text_9">
      <!-- −10 -->
      <g transform="translate(34.895313 225.412207)scale(0.1 -0.1)">
       <use xlink:href="#DejaVuSans-8722"/>
       <use x="83.789062" xlink:href="#DejaVuSans-49"/>
       <use x="147.412109" xlink:href="#DejaVuSans-48"/>
      </g>
     </g>
    </g>
    <g id="ytick_2">
     <g id="line2d_10">
      <g>
       <use style="stroke:#000000;stroke-width:0.8;" x="63" xlink:href="#m2f0ca688d9" y="189.141166"/>
      </g>
     </g>
     <g id="text_10">
      <!-- −5 -->
      <g transform="translate(41.257812 192.940384)scale(0.1 -0.1)">
       <use xlink:href="#DejaVuSans-8722"/>
       <use x="83.789062" xlink:href="#DejaVuSans-53"/>
      </g>
     </g>
    </g>
    <g id="ytick_3">
     <g id="line2d_11">
      <g>
       <use style="stroke:#000000;stroke-width:0.8;" x="63" xlink:href="#m2f0ca688d9" y="156.669343"/>
      </g>
     </g>
     <g id="text_11">
      <!-- 0 -->
      <g transform="translate(49.6375 160.468562)scale(0.1 -0.1)">
       <use xlink:href="#DejaVuSans-48"/>
      </g>
     </g>
    </g>
    <g id="ytick_4">
     <g id="line2d_12">
      <g>
       <use style="stroke:#000000;stroke-width:0.8;" x="63" xlink:href="#m2f0ca688d9" y="124.197521"/>
      </g>
     </g>
     <g id="text_12">
      <!-- 5 -->
      <g transform="translate(49.6375 127.99674)scale(0.1 -0.1)">
       <use xlink:href="#DejaVuSans-53"/>
      </g>
     </g>
    </g>
    <g id="ytick_5">
     <g id="line2d_13">
      <g>
       <use style="stroke:#000000;stroke-width:0.8;" x="63" xlink:href="#m2f0ca688d9" y="91.725699"/>
      </g>
     </g>
     <g id="text_13">
      <!-- 10 -->
      <g transform="translate(43.275 95.524918)scale(0.1 -0.1)">
       <use xlink:href="#DejaVuSans-49"/>
       <use x="63.623047" xlink:href="#DejaVuSans-48"/>
      </g>
     </g>
    </g>
    <g id="ytick_6">
     <g id="line2d_14">
      <g>
       <use style="stroke:#000000;stroke-width:0.8;" x="63" xlink:href="#m2f0ca688d9" y="59.253877"/>
      </g>
     </g>
     <g id="text_14">
      <!-- 15 -->
      <g transform="translate(43.275 63.053095)scale(0.1 -0.1)">
       <use xlink:href="#DejaVuSans-49"/>
       <use x="63.623047" xlink:href="#DejaVuSans-53"/>
      </g>
     </g>
    </g>
   </g>
   <g id="patch_3">
    <path d="M 63 249.912 
L 63 33.696 
" style="fill:none;stroke:#000000;stroke-linecap:square;stroke-linejoin:miter;stroke-width:0.8;"/>
   </g>
   <g id="patch_4">
    <path d="M 453.6 249.912 
L 453.6 33.696 
" style="fill:none;stroke:#000000;stroke-linecap:square;stroke-linejoin:miter;stroke-width:0.8;"/>
   </g>
   <g id="patch_5">
    <path d="M 63 249.912 
L 453.6 249.912 
" style="fill:none;stroke:#000000;stroke-linecap:square;stroke-linejoin:miter;stroke-width:0.8;"/>
   </g>
   <g id="patch_6">
    <path d="M 63 33.696 
L 453.6 33.696 
" style="fill:none;stroke:#000000;stroke-linecap:square;stroke-linejoin:miter;stroke-width:0.8;"/>
   </g>
   <g id="text_15">
    <!-- UMAP projection of the phylogenetic dataset -->
    <g transform="translate(124.38375 27.696)scale(0.12 -0.12)">
     <defs>
      <path d="M 8.6875 72.90625 
L 18.609375 72.90625 
L 18.609375 28.609375 
Q 18.609375 16.890625 22.84375 11.734375 
Q 27.09375 6.59375 36.625 6.59375 
Q 46.09375 6.59375 50.34375 11.734375 
Q 54.59375 16.890625 54.59375 28.609375 
L 54.59375 72.90625 
L 64.5 72.90625 
L 64.5 27.390625 
Q 64.5 13.140625 57.4375 5.859375 
Q 50.390625 -1.421875 36.625 -1.421875 
Q 22.796875 -1.421875 15.734375 5.859375 
Q 8.6875 13.140625 8.6875 27.390625 
z
" id="DejaVuSans-85"/>
      <path d="M 9.8125 72.90625 
L 24.515625 72.90625 
L 43.109375 23.296875 
L 61.8125 72.90625 
L 76.515625 72.90625 
L 76.515625 0 
L 66.890625 0 
L 66.890625 64.015625 
L 48.09375 14.015625 
L 38.1875 14.015625 
L 19.390625 64.015625 
L 19.390625 0 
L 9.8125 0 
z
" id="DejaVuSans-77"/>
      <path d="M 34.1875 63.1875 
L 20.796875 26.90625 
L 47.609375 26.90625 
z
M 28.609375 72.90625 
L 39.796875 72.90625 
L 67.578125 0 
L 57.328125 0 
L 50.6875 18.703125 
L 17.828125 18.703125 
L 11.1875 0 
L 0.78125 0 
z
" id="DejaVuSans-65"/>
      <path d="M 19.671875 64.796875 
L 19.671875 37.40625 
L 32.078125 37.40625 
Q 38.96875 37.40625 42.71875 40.96875 
Q 46.484375 44.53125 46.484375 51.125 
Q 46.484375 57.671875 42.71875 61.234375 
Q 38.96875 64.796875 32.078125 64.796875 
z
M 9.8125 72.90625 
L 32.078125 72.90625 
Q 44.34375 72.90625 50.609375 67.359375 
Q 56.890625 61.8125 56.890625 51.125 
Q 56.890625 40.328125 50.609375 34.8125 
Q 44.34375 29.296875 32.078125 29.296875 
L 19.671875 29.296875 
L 19.671875 0 
L 9.8125 0 
z
" id="DejaVuSans-80"/>
      <path id="DejaVuSans-32"/>
      <path d="M 18.109375 8.203125 
L 18.109375 -20.796875 
L 9.078125 -20.796875 
L 9.078125 54.6875 
L 18.109375 54.6875 
L 18.109375 46.390625 
Q 20.953125 51.265625 25.265625 53.625 
Q 29.59375 56 35.59375 56 
Q 45.5625 56 51.78125 48.09375 
Q 58.015625 40.1875 58.015625 27.296875 
Q 58.015625 14.40625 51.78125 6.484375 
Q 45.5625 -1.421875 35.59375 -1.421875 
Q 29.59375 -1.421875 25.265625 0.953125 
Q 20.953125 3.328125 18.109375 8.203125 
z
M 48.6875 27.296875 
Q 48.6875 37.203125 44.609375 42.84375 
Q 40.53125 48.484375 33.40625 48.484375 
Q 26.265625 48.484375 22.1875 42.84375 
Q 18.109375 37.203125 18.109375 27.296875 
Q 18.109375 17.390625 22.1875 11.75 
Q 26.265625 6.109375 33.40625 6.109375 
Q 40.53125 6.109375 44.609375 11.75 
Q 48.6875 17.390625 48.6875 27.296875 
z
" id="DejaVuSans-112"/>
      <path d="M 41.109375 46.296875 
Q 39.59375 47.171875 37.8125 47.578125 
Q 36.03125 48 33.890625 48 
Q 26.265625 48 22.1875 43.046875 
Q 18.109375 38.09375 18.109375 28.8125 
L 18.109375 0 
L 9.078125 0 
L 9.078125 54.6875 
L 18.109375 54.6875 
L 18.109375 46.1875 
Q 20.953125 51.171875 25.484375 53.578125 
Q 30.03125 56 36.53125 56 
Q 37.453125 56 38.578125 55.875 
Q 39.703125 55.765625 41.0625 55.515625 
z
" id="DejaVuSans-114"/>
      <path d="M 30.609375 48.390625 
Q 23.390625 48.390625 19.1875 42.75 
Q 14.984375 37.109375 14.984375 27.296875 
Q 14.984375 17.484375 19.15625 11.84375 
Q 23.34375 6.203125 30.609375 6.203125 
Q 37.796875 6.203125 41.984375 11.859375 
Q 46.1875 17.53125 46.1875 27.296875 
Q 46.1875 37.015625 41.984375 42.703125 
Q 37.796875 48.390625 30.609375 48.390625 
z
M 30.609375 56 
Q 42.328125 56 49.015625 48.375 
Q 55.71875 40.765625 55.71875 27.296875 
Q 55.71875 13.875 49.015625 6.21875 
Q 42.328125 -1.421875 30.609375 -1.421875 
Q 18.84375 -1.421875 12.171875 6.21875 
Q 5.515625 13.875 5.515625 27.296875 
Q 5.515625 40.765625 12.171875 48.375 
Q 18.84375 56 30.609375 56 
z
" id="DejaVuSans-111"/>
      <path d="M 9.421875 54.6875 
L 18.40625 54.6875 
L 18.40625 -0.984375 
Q 18.40625 -11.421875 14.421875 -16.109375 
Q 10.453125 -20.796875 1.609375 -20.796875 
L -1.8125 -20.796875 
L -1.8125 -13.1875 
L 0.59375 -13.1875 
Q 5.71875 -13.1875 7.5625 -10.8125 
Q 9.421875 -8.453125 9.421875 -0.984375 
z
M 9.421875 75.984375 
L 18.40625 75.984375 
L 18.40625 64.59375 
L 9.421875 64.59375 
z
" id="DejaVuSans-106"/>
      <path d="M 56.203125 29.59375 
L 56.203125 25.203125 
L 14.890625 25.203125 
Q 15.484375 15.921875 20.484375 11.0625 
Q 25.484375 6.203125 34.421875 6.203125 
Q 39.59375 6.203125 44.453125 7.46875 
Q 49.3125 8.734375 54.109375 11.28125 
L 54.109375 2.78125 
Q 49.265625 0.734375 44.1875 -0.34375 
Q 39.109375 -1.421875 33.890625 -1.421875 
Q 20.796875 -1.421875 13.15625 6.1875 
Q 5.515625 13.8125 5.515625 26.8125 
Q 5.515625 40.234375 12.765625 48.109375 
Q 20.015625 56 32.328125 56 
Q 43.359375 56 49.78125 48.890625 
Q 56.203125 41.796875 56.203125 29.59375 
z
M 47.21875 32.234375 
Q 47.125 39.59375 43.09375 43.984375 
Q 39.0625 48.390625 32.421875 48.390625 
Q 24.90625 48.390625 20.390625 44.140625 
Q 15.875 39.890625 15.1875 32.171875 
z
" id="DejaVuSans-101"/>
      <path d="M 48.78125 52.59375 
L 48.78125 44.1875 
Q 44.96875 46.296875 41.140625 47.34375 
Q 37.3125 48.390625 33.40625 48.390625 
Q 24.65625 48.390625 19.8125 42.84375 
Q 14.984375 37.3125 14.984375 27.296875 
Q 14.984375 17.28125 19.8125 11.734375 
Q 24.65625 6.203125 33.40625 6.203125 
Q 37.3125 6.203125 41.140625 7.25 
Q 44.96875 8.296875 48.78125 10.40625 
L 48.78125 2.09375 
Q 45.015625 0.34375 40.984375 -0.53125 
Q 36.96875 -1.421875 32.421875 -1.421875 
Q 20.0625 -1.421875 12.78125 6.34375 
Q 5.515625 14.109375 5.515625 27.296875 
Q 5.515625 40.671875 12.859375 48.328125 
Q 20.21875 56 33.015625 56 
Q 37.15625 56 41.109375 55.140625 
Q 45.0625 54.296875 48.78125 52.59375 
z
" id="DejaVuSans-99"/>
      <path d="M 18.3125 70.21875 
L 18.3125 54.6875 
L 36.8125 54.6875 
L 36.8125 47.703125 
L 18.3125 47.703125 
L 18.3125 18.015625 
Q 18.3125 11.328125 20.140625 9.421875 
Q 21.96875 7.515625 27.59375 7.515625 
L 36.8125 7.515625 
L 36.8125 0 
L 27.59375 0 
Q 17.1875 0 13.234375 3.875 
Q 9.28125 7.765625 9.28125 18.015625 
L 9.28125 47.703125 
L 2.6875 47.703125 
L 2.6875 54.6875 
L 9.28125 54.6875 
L 9.28125 70.21875 
z
" id="DejaVuSans-116"/>
      <path d="M 9.421875 54.6875 
L 18.40625 54.6875 
L 18.40625 0 
L 9.421875 0 
z
M 9.421875 75.984375 
L 18.40625 75.984375 
L 18.40625 64.59375 
L 9.421875 64.59375 
z
" id="DejaVuSans-105"/>
      <path d="M 54.890625 33.015625 
L 54.890625 0 
L 45.90625 0 
L 45.90625 32.71875 
Q 45.90625 40.484375 42.875 44.328125 
Q 39.84375 48.1875 33.796875 48.1875 
Q 26.515625 48.1875 22.3125 43.546875 
Q 18.109375 38.921875 18.109375 30.90625 
L 18.109375 0 
L 9.078125 0 
L 9.078125 54.6875 
L 18.109375 54.6875 
L 18.109375 46.1875 
Q 21.34375 51.125 25.703125 53.5625 
Q 30.078125 56 35.796875 56 
Q 45.21875 56 50.046875 50.171875 
Q 54.890625 44.34375 54.890625 33.015625 
z
" id="DejaVuSans-110"/>
      <path d="M 37.109375 75.984375 
L 37.109375 68.5 
L 28.515625 68.5 
Q 23.6875 68.5 21.796875 66.546875 
Q 19.921875 64.59375 19.921875 59.515625 
L 19.921875 54.6875 
L 34.71875 54.6875 
L 34.71875 47.703125 
L 19.921875 47.703125 
L 19.921875 0 
L 10.890625 0 
L 10.890625 47.703125 
L 2.296875 47.703125 
L 2.296875 54.6875 
L 10.890625 54.6875 
L 10.890625 58.5 
Q 10.890625 67.625 15.140625 71.796875 
Q 19.390625 75.984375 28.609375 75.984375 
z
" id="DejaVuSans-102"/>
      <path d="M 54.890625 33.015625 
L 54.890625 0 
L 45.90625 0 
L 45.90625 32.71875 
Q 45.90625 40.484375 42.875 44.328125 
Q 39.84375 48.1875 33.796875 48.1875 
Q 26.515625 48.1875 22.3125 43.546875 
Q 18.109375 38.921875 18.109375 30.90625 
L 18.109375 0 
L 9.078125 0 
L 9.078125 75.984375 
L 18.109375 75.984375 
L 18.109375 46.1875 
Q 21.34375 51.125 25.703125 53.5625 
Q 30.078125 56 35.796875 56 
Q 45.21875 56 50.046875 50.171875 
Q 54.890625 44.34375 54.890625 33.015625 
z
" id="DejaVuSans-104"/>
      <path d="M 32.171875 -5.078125 
Q 28.375 -14.84375 24.75 -17.8125 
Q 21.140625 -20.796875 15.09375 -20.796875 
L 7.90625 -20.796875 
L 7.90625 -13.28125 
L 13.1875 -13.28125 
Q 16.890625 -13.28125 18.9375 -11.515625 
Q 21 -9.765625 23.484375 -3.21875 
L 25.09375 0.875 
L 2.984375 54.6875 
L 12.5 54.6875 
L 29.59375 11.921875 
L 46.6875 54.6875 
L 56.203125 54.6875 
z
" id="DejaVuSans-121"/>
      <path d="M 9.421875 75.984375 
L 18.40625 75.984375 
L 18.40625 0 
L 9.421875 0 
z
" id="DejaVuSans-108"/>
      <path d="M 45.40625 27.984375 
Q 45.40625 37.75 41.375 43.109375 
Q 37.359375 48.484375 30.078125 48.484375 
Q 22.859375 48.484375 18.828125 43.109375 
Q 14.796875 37.75 14.796875 27.984375 
Q 14.796875 18.265625 18.828125 12.890625 
Q 22.859375 7.515625 30.078125 7.515625 
Q 37.359375 7.515625 41.375 12.890625 
Q 45.40625 18.265625 45.40625 27.984375 
z
M 54.390625 6.78125 
Q 54.390625 -7.171875 48.1875 -13.984375 
Q 42 -20.796875 29.203125 -20.796875 
Q 24.46875 -20.796875 20.265625 -20.09375 
Q 16.0625 -19.390625 12.109375 -17.921875 
L 12.109375 -9.1875 
Q 16.0625 -11.328125 19.921875 -12.34375 
Q 23.78125 -13.375 27.78125 -13.375 
Q 36.625 -13.375 41.015625 -8.765625 
Q 45.40625 -4.15625 45.40625 5.171875 
L 45.40625 9.625 
Q 42.625 4.78125 38.28125 2.390625 
Q 33.9375 0 27.875 0 
Q 17.828125 0 11.671875 7.65625 
Q 5.515625 15.328125 5.515625 27.984375 
Q 5.515625 40.671875 11.671875 48.328125 
Q 17.828125 56 27.875 56 
Q 33.9375 56 38.28125 53.609375 
Q 42.625 51.21875 45.40625 46.390625 
L 45.40625 54.6875 
L 54.390625 54.6875 
z
" id="DejaVuSans-103"/>
      <path d="M 45.40625 46.390625 
L 45.40625 75.984375 
L 54.390625 75.984375 
L 54.390625 0 
L 45.40625 0 
L 45.40625 8.203125 
Q 42.578125 3.328125 38.25 0.953125 
Q 33.9375 -1.421875 27.875 -1.421875 
Q 17.96875 -1.421875 11.734375 6.484375 
Q 5.515625 14.40625 5.515625 27.296875 
Q 5.515625 40.1875 11.734375 48.09375 
Q 17.96875 56 27.875 56 
Q 33.9375 56 38.25 53.625 
Q 42.578125 51.265625 45.40625 46.390625 
z
M 14.796875 27.296875 
Q 14.796875 17.390625 18.875 11.75 
Q 22.953125 6.109375 30.078125 6.109375 
Q 37.203125 6.109375 41.296875 11.75 
Q 45.40625 17.390625 45.40625 27.296875 
Q 45.40625 37.203125 41.296875 42.84375 
Q 37.203125 48.484375 30.078125 48.484375 
Q 22.953125 48.484375 18.875 42.84375 
Q 14.796875 37.203125 14.796875 27.296875 
z
" id="DejaVuSans-100"/>
      <path d="M 34.28125 27.484375 
Q 23.390625 27.484375 19.1875 25 
Q 14.984375 22.515625 14.984375 16.5 
Q 14.984375 11.71875 18.140625 8.90625 
Q 21.296875 6.109375 26.703125 6.109375 
Q 34.1875 6.109375 38.703125 11.40625 
Q 43.21875 16.703125 43.21875 25.484375 
L 43.21875 27.484375 
z
M 52.203125 31.203125 
L 52.203125 0 
L 43.21875 0 
L 43.21875 8.296875 
Q 40.140625 3.328125 35.546875 0.953125 
Q 30.953125 -1.421875 24.3125 -1.421875 
Q 15.921875 -1.421875 10.953125 3.296875 
Q 6 8.015625 6 15.921875 
Q 6 25.140625 12.171875 29.828125 
Q 18.359375 34.515625 30.609375 34.515625 
L 43.21875 34.515625 
L 43.21875 35.40625 
Q 43.21875 41.609375 39.140625 45 
Q 35.0625 48.390625 27.6875 48.390625 
Q 23 48.390625 18.546875 47.265625 
Q 14.109375 46.140625 10.015625 43.890625 
L 10.015625 52.203125 
Q 14.9375 54.109375 19.578125 55.046875 
Q 24.21875 56 28.609375 56 
Q 40.484375 56 46.34375 49.84375 
Q 52.203125 43.703125 52.203125 31.203125 
z
" id="DejaVuSans-97"/>
      <path d="M 44.28125 53.078125 
L 44.28125 44.578125 
Q 40.484375 46.53125 36.375 47.5 
Q 32.28125 48.484375 27.875 48.484375 
Q 21.1875 48.484375 17.84375 46.4375 
Q 14.5 44.390625 14.5 40.28125 
Q 14.5 37.15625 16.890625 35.375 
Q 19.28125 33.59375 26.515625 31.984375 
L 29.59375 31.296875 
Q 39.15625 29.25 43.1875 25.515625 
Q 47.21875 21.78125 47.21875 15.09375 
Q 47.21875 7.46875 41.1875 3.015625 
Q 35.15625 -1.421875 24.609375 -1.421875 
Q 20.21875 -1.421875 15.453125 -0.5625 
Q 10.6875 0.296875 5.421875 2 
L 5.421875 11.28125 
Q 10.40625 8.6875 15.234375 7.390625 
Q 20.0625 6.109375 24.8125 6.109375 
Q 31.15625 6.109375 34.5625 8.28125 
Q 37.984375 10.453125 37.984375 14.40625 
Q 37.984375 18.0625 35.515625 20.015625 
Q 33.0625 21.96875 24.703125 23.78125 
L 21.578125 24.515625 
Q 13.234375 26.265625 9.515625 29.90625 
Q 5.8125 33.546875 5.8125 39.890625 
Q 5.8125 47.609375 11.28125 51.796875 
Q 16.75 56 26.8125 56 
Q 31.78125 56 36.171875 55.265625 
Q 40.578125 54.546875 44.28125 53.078125 
z
" id="DejaVuSans-115"/>
     </defs>
     <use xlink:href="#DejaVuSans-85"/>
     <use x="73.193359" xlink:href="#DejaVuSans-77"/>
     <use x="159.472656" xlink:href="#DejaVuSans-65"/>
     <use x="227.880859" xlink:href="#DejaVuSans-80"/>
     <use x="288.183594" xlink:href="#DejaVuSans-32"/>
     <use x="319.970703" xlink:href="#DejaVuSans-112"/>
     <use x="383.447266" xlink:href="#DejaVuSans-114"/>
     <use x="422.310547" xlink:href="#DejaVuSans-111"/>
     <use x="483.492188" xlink:href="#DejaVuSans-106"/>
     <use x="511.275391" xlink:href="#DejaVuSans-101"/>
     <use x="572.798828" xlink:href="#DejaVuSans-99"/>
     <use x="627.779297" xlink:href="#DejaVuSans-116"/>
     <use x="666.988281" xlink:href="#DejaVuSans-105"/>
     <use x="694.771484" xlink:href="#DejaVuSans-111"/>
     <use x="755.953125" xlink:href="#DejaVuSans-110"/>
     <use x="819.332031" xlink:href="#DejaVuSans-32"/>
     <use x="851.119141" xlink:href="#DejaVuSans-111"/>
     <use x="912.300781" xlink:href="#DejaVuSans-102"/>
     <use x="947.505859" xlink:href="#DejaVuSans-32"/>
     <use x="979.292969" xlink:href="#DejaVuSans-116"/>
     <use x="1018.501953" xlink:href="#DejaVuSans-104"/>
     <use x="1081.880859" xlink:href="#DejaVuSans-101"/>
     <use x="1143.404297" xlink:href="#DejaVuSans-32"/>
     <use x="1175.191406" xlink:href="#DejaVuSans-112"/>
     <use x="1238.667969" xlink:href="#DejaVuSans-104"/>
     <use x="1302.046875" xlink:href="#DejaVuSans-121"/>
     <use x="1361.226562" xlink:href="#DejaVuSans-108"/>
     <use x="1389.009766" xlink:href="#DejaVuSans-111"/>
     <use x="1450.191406" xlink:href="#DejaVuSans-103"/>
     <use x="1513.667969" xlink:href="#DejaVuSans-101"/>
     <use x="1575.191406" xlink:href="#DejaVuSans-110"/>
     <use x="1638.570312" xlink:href="#DejaVuSans-101"/>
     <use x="1700.09375" xlink:href="#DejaVuSans-116"/>
     <use x="1739.302734" xlink:href="#DejaVuSans-105"/>
     <use x="1767.085938" xlink:href="#DejaVuSans-99"/>
     <use x="1822.066406" xlink:href="#DejaVuSans-32"/>
     <use x="1853.853516" xlink:href="#DejaVuSans-100"/>
     <use x="1917.330078" xlink:href="#DejaVuSans-97"/>
     <use x="1978.609375" xlink:href="#DejaVuSans-116"/>
     <use x="2017.818359" xlink:href="#DejaVuSans-97"/>
     <use x="2079.097656" xlink:href="#DejaVuSans-115"/>
     <use x="2131.197266" xlink:href="#DejaVuSans-101"/>
     <use x="2192.720703" xlink:href="#DejaVuSans-116"/>
    </g>
   </g>
  </g>
 </g>
 <defs>
  <clipPath id="p0045171f2d">
   <rect height="216.216" width="390.6" x="63" y="33.696"/>
  </clipPath>
 </defs>
</svg>
